<?xml version="1.0" encoding="UTF-8"?>
<svg xmlns="http://www.w3.org/2000/svg" width="16px" height="16px" viewBox="0 0 16 16" version="1.1">
    <g id="surface1">
        <path style=" stroke:none;fill-rule:nonzero;fill:rgb(100%,75.294118%,13.333333%);fill-opacity:1;"
              d="M 14.332031 8.773438 C 14.089844 5.527344 11.804688 3.289062 8 3.289062 C 4.195312 3.289062 1.90625 5.667969 1.679688 8.914062 C 1.550781 10.804688 2.253906 12.492188 3.671875 13.453125 C 4.601562 14.085938 5.90625 14.4375 8.015625 14.4375 C 10.164062 14.4375 11.394531 13.976562 12.328125 13.347656 C 13.882812 12.304688 14.476562 10.640625 14.332031 8.773438 Z M 14.332031 8.773438 "/>
        <path style=" stroke:none;fill-rule:nonzero;fill:rgb(100%,75.294118%,13.333333%);fill-opacity:1;"
              d="M 6.714844 5.324219 C 5.789062 2.925781 3.761719 1.292969 2.984375 1.046875 C 2.691406 0.957031 2.320312 0.949219 2.15625 1.21875 C 1.734375 1.898438 1.199219 4.085938 2.386719 7.191406 Z M 6.714844 5.324219 "/>
        <path style=" stroke:none;fill-rule:nonzero;fill:rgb(100%,81.960784%,81.960784%);fill-opacity:1;"
              d="M 4.515625 4.277344 C 4.707031 4.113281 4.800781 3.957031 4.589844 3.632812 C 4.261719 3.125 3.671875 2.535156 3.445312 2.351562 C 3.070312 2.054688 2.78125 1.953125 2.667969 2.433594 C 2.460938 3.320312 2.480469 4.519531 2.699219 5.183594 C 2.777344 5.417969 3.015625 5.539062 3.203125 5.378906 Z M 4.515625 4.277344 "/>
        <path style=" stroke:none;fill-rule:nonzero;fill:rgb(100%,60.784314%,19.215686%);fill-opacity:1;"
              d="M 6.765625 5.628906 C 6.90625 5.746094 7.191406 5.730469 7.359375 5.539062 C 7.558594 5.304688 7.769531 4.515625 7.640625 3.296875 C 7.054688 3.320312 6.503906 3.402344 5.988281 3.546875 C 6.402344 4.226562 6.503906 5.40625 6.765625 5.628906 Z M 6.765625 5.628906 "/>
        <path style=" stroke:none;fill-rule:nonzero;fill:rgb(100%,60.784314%,19.215686%);fill-opacity:1;"
              d="M 9.234375 5.628906 C 9.09375 5.746094 8.808594 5.730469 8.640625 5.539062 C 8.441406 5.304688 8.230469 4.515625 8.359375 3.296875 C 8.945312 3.320312 9.496094 3.402344 10.011719 3.546875 C 9.597656 4.226562 9.496094 5.40625 9.234375 5.628906 Z M 9.234375 5.628906 "/>
        <path style=" stroke:none;fill-rule:nonzero;fill:rgb(100%,75.294118%,13.333333%);fill-opacity:1;"
              d="M 9.988281 3.652344 C 10.996094 2.101562 12.410156 1.058594 12.996094 0.871094 C 13.285156 0.78125 13.625 0.796875 13.789062 1.066406 C 14.203125 1.746094 14.554688 3.847656 13.734375 6.785156 L 10.746094 5.34375 Z M 9.988281 3.652344 "/>
        <path style=" stroke:none;fill-rule:nonzero;fill:rgb(100%,81.960784%,81.960784%);fill-opacity:1;"
              d="M 12.195312 4.777344 C 12.496094 5.082031 12.746094 5.285156 12.921875 5.480469 C 13.042969 5.609375 13.261719 5.550781 13.296875 5.378906 C 13.601562 3.902344 13.503906 2.644531 13.296875 2.316406 C 13.195312 2.15625 13.007812 2.117188 12.839844 2.171875 C 12.535156 2.273438 11.757812 2.855469 11.207031 3.703125 C 11.144531 3.800781 11.167969 3.933594 11.265625 4 C 11.460938 4.132812 11.808594 4.390625 12.195312 4.777344 Z M 12.195312 4.777344 "/>
        <path style=" stroke:none;fill-rule:nonzero;fill:rgb(0%,0%,0%);fill-opacity:1;"
              d="M 6.957031 9.71875 C 6.953125 9.332031 7.503906 9.148438 8.027344 9.140625 C 8.546875 9.132812 9.109375 9.300781 9.117188 9.6875 C 9.125 10.074219 8.464844 10.578125 8.050781 10.578125 C 7.636719 10.578125 6.964844 10.101562 6.957031 9.71875 Z M 6.957031 9.71875 "/>
        <path style="fill:none;stroke-width:3;stroke-linecap:round;stroke-linejoin:miter;stroke:rgb(61.960784%,61.960784%,61.960784%);stroke-opacity:1;stroke-miterlimit:10;"
              d="M 6.6875 71.03125 C 7.03125 71.4375 11.125 71.375 21.0625 76.09375 "
              transform="matrix(0.125,0,0,0.125,0,0)"/>
        <path style="fill:none;stroke-width:3;stroke-linecap:round;stroke-linejoin:miter;stroke:rgb(61.960784%,61.960784%,61.960784%);stroke-opacity:1;stroke-miterlimit:10;"
              d="M 2.90625 82.875 C 2.90625 82.875 9.3125 80.625 20.375 82.59375 "
              transform="matrix(0.125,0,0,0.125,0,0)"/>
        <path style="fill:none;stroke-width:3;stroke-linecap:round;stroke-linejoin:miter;stroke:rgb(61.960784%,61.960784%,61.960784%);stroke-opacity:1;stroke-miterlimit:10;"
              d="M 8.8125 92.28125 C 8.8125 92.28125 11.5625 90.90625 21.46875 90.03125 "
              transform="matrix(0.125,0,0,0.125,0,0)"/>
        <path style="fill:none;stroke-width:3;stroke-linecap:round;stroke-linejoin:miter;stroke:rgb(61.960784%,61.960784%,61.960784%);stroke-opacity:1;stroke-miterlimit:10;"
              d="M 120.875 67.5 C 120.875 67.5 117.46875 67.84375 106.9375 73.84375 "
              transform="matrix(0.125,0,0,0.125,0,0)"/>
        <path style="fill:none;stroke-width:3;stroke-linecap:round;stroke-linejoin:miter;stroke:rgb(61.960784%,61.960784%,61.960784%);stroke-opacity:1;stroke-miterlimit:10;"
              d="M 122.40625 78.5 C 122.40625 78.5 117.34375 78.125 106.375 80.46875 "
              transform="matrix(0.125,0,0,0.125,0,0)"/>
        <path style="fill:none;stroke-width:3;stroke-linecap:round;stroke-linejoin:miter;stroke:rgb(61.960784%,61.960784%,61.960784%);stroke-opacity:1;stroke-miterlimit:10;"
              d="M 120.4375 89.0625 C 120.4375 89.0625 115.625 87.34375 105.65625 86.8125 "
              transform="matrix(0.125,0,0,0.125,0,0)"/>
        <path style=" stroke:none;fill-rule:nonzero;fill:rgb(0%,0.784314%,0%);fill-opacity:1;"
              d="M 12.011719 8.296875 C 11.96875 8.984375 11.542969 9.363281 11.054688 9.363281 C 10.570312 9.363281 10.175781 8.878906 10.175781 8.28125 C 10.175781 7.683594 10.585938 7.191406 11.132812 7.222656 C 11.765625 7.257812 12.046875 7.734375 12.011719 8.296875 Z M 12.011719 8.296875 "/>
        <path style=" stroke:none;fill-rule:nonzero;fill:rgb(0%,0.784314%,0%);fill-opacity:1;"
              d="M 5.75 8.226562 C 5.847656 8.925781 5.550781 9.355469 5.0625 9.453125 C 4.574219 9.550781 4.15625 9.222656 4.035156 8.625 C 3.914062 8.023438 4.148438 7.457031 4.703125 7.378906 C 5.347656 7.285156 5.671875 7.652344 5.75 8.226562 Z M 5.75 8.226562 "/>
        <path style=" stroke:none;fill-rule:nonzero;fill:rgb(0%,0%,0%);fill-opacity:1;"
              d="M 5.625 10.644531 C 5.300781 10.855469 5.683594 11.335938 5.90625 11.5 C 6.128906 11.664062 6.527344 11.867188 7.113281 11.804688 C 7.804688 11.734375 8.003906 11.21875 8.003906 11.21875 C 8.003906 11.21875 8.25 11.796875 9.109375 11.820312 C 9.976562 11.84375 10.246094 11.371094 10.363281 11.234375 C 10.480469 11.089844 10.597656 10.726562 10.398438 10.585938 C 10.199219 10.445312 10.058594 10.621094 9.847656 10.917969 C 9.636719 11.210938 9.203125 11.375 8.777344 11.171875 C 8.355469 10.972656 8.332031 10.292969 8.332031 10.292969 L 7.734375 10.328125 C 7.734375 10.328125 7.640625 10.914062 7.371094 11.101562 C 7.101562 11.289062 6.453125 11.335938 6.183594 10.925781 C 6.066406 10.742188 5.894531 10.46875 5.625 10.644531 Z M 5.625 10.644531 "/>
    </g>
</svg>
